<svg width="603" height="498" viewBox="0 0 603 498" fill="none" xmlns="http://www.w3.org/2000/svg">
<ellipse rx="233.5" ry="220.328" transform="matrix(-1 0 0 1 286.5 249.503)" fill="#FFE5D2"/>
<path fill-rule="evenodd" clip-rule="evenodd" d="M480.408 345.777C480.508 345.718 481.135 346.553 482.061 348.196C482.991 349.835 484.148 352.323 485.224 355.534C487.428 361.933 488.812 371.38 487.992 381.682C487.178 391.983 484.819 401.025 482.999 407.462C481.137 413.901 479.767 417.809 479.531 417.744C479.27 417.671 480.195 413.627 481.723 407.125C483.211 400.624 485.335 391.629 486.131 381.539C486.931 371.452 485.793 362.271 483.964 355.924C482.187 349.545 480.115 345.93 480.408 345.777Z" fill="white"/>
<path fill-rule="evenodd" clip-rule="evenodd" d="M486.696 294.222C486.813 294.17 487.57 295.57 488.835 298.151C490.098 300.733 491.873 304.494 493.973 309.188C498.138 318.576 503.744 331.718 507.81 346.974C509.809 354.606 511.172 362.025 511.862 368.839C512.557 375.651 512.628 381.84 512.28 387.006C511.943 392.174 511.297 396.321 510.675 399.141C510.059 401.967 509.572 403.488 509.462 403.464C509.117 403.396 510.639 397.177 510.963 386.944C511.365 376.732 510.036 362.545 506.007 347.46C501.987 332.369 496.61 319.22 492.761 309.716C490.823 304.96 489.256 301.111 488.171 298.45C487.111 295.778 486.578 294.276 486.696 294.222Z" fill="white"/>
<path fill-rule="evenodd" clip-rule="evenodd" d="M253.991 354.732C254.207 354.966 252.091 357.003 249.345 360.786C248.663 361.736 247.923 362.775 247.23 363.962C246.473 365.105 245.814 366.417 245.08 367.772C243.717 370.533 242.423 373.671 241.424 377.087C240.47 380.516 239.913 383.868 239.613 386.938C239.522 388.478 239.389 389.943 239.427 391.317C239.389 392.695 239.467 393.974 239.543 395.145C239.876 399.821 240.596 402.682 240.289 402.765C240.103 402.83 238.919 400.066 238.232 395.28C238.067 394.085 237.91 392.771 237.88 391.35C237.774 389.93 237.85 388.411 237.897 386.811C238.112 383.622 238.639 380.125 239.632 376.566C240.667 373.018 242.061 369.775 243.562 366.959C244.363 365.577 245.098 364.25 245.937 363.105C246.71 361.917 247.537 360.889 248.306 359.965C251.409 356.281 253.869 354.578 253.991 354.732Z" fill="white"/>
<path fill-rule="evenodd" clip-rule="evenodd" d="M258.957 371.238C259.114 371.49 257.935 372.4 256.395 374.141C255.615 375.001 254.793 376.115 253.985 377.407C253.211 378.72 252.47 380.227 251.887 381.888C251.33 383.558 250.995 385.206 250.803 386.723C250.65 388.242 250.616 389.63 250.705 390.793C250.855 393.121 251.228 394.573 250.95 394.674C250.75 394.759 249.911 393.431 249.398 390.97C249.13 389.743 249.02 388.241 249.089 386.577C249.198 384.918 249.513 383.099 250.123 381.274C250.757 379.457 251.621 377.83 252.548 376.455C253.509 375.101 254.514 373.988 255.472 373.188C257.379 371.568 258.851 371.044 258.957 371.238Z" fill="white"/>
<path fill-rule="evenodd" clip-rule="evenodd" d="M190.015 217.417C190.111 217.332 190.946 218.161 192.379 219.743C193.107 220.526 193.967 221.512 194.877 222.728C195.796 223.933 196.902 225.271 197.939 226.879C198.474 227.673 199.037 228.503 199.621 229.37C200.199 230.242 200.723 231.196 201.307 232.16C202.503 234.073 203.574 236.234 204.739 238.488C206.94 243.06 209.043 248.248 210.719 253.873C212.341 259.515 213.37 265.026 213.985 270.069C214.22 272.601 214.484 275.003 214.511 277.264C214.54 278.393 214.613 279.482 214.597 280.532C214.573 281.579 214.549 282.584 214.527 283.544C214.522 285.466 214.314 287.193 214.192 288.711C214.082 290.229 213.892 291.528 213.702 292.583C213.351 294.699 213.097 295.853 212.97 295.835C212.641 295.791 213.26 291.104 213.209 283.53C213.191 282.583 213.175 281.593 213.157 280.559C213.135 279.527 213.027 278.455 212.965 277.346C212.873 275.124 212.555 272.767 212.28 270.284C211.58 265.339 210.521 259.945 208.929 254.408C207.283 248.887 205.269 243.777 203.193 239.242C202.088 237.007 201.085 234.855 199.967 232.938C199.42 231.973 198.933 231.015 198.397 230.136C197.855 229.26 197.336 228.418 196.841 227.615C192.806 221.228 189.761 217.635 190.015 217.417Z" fill="white"/>
<path fill-rule="evenodd" clip-rule="evenodd" d="M211.144 226.242C211.303 226.099 213.446 228.122 216.172 232.023C217.544 233.964 218.989 236.411 220.396 239.232C221.762 242.073 223.066 245.298 224.106 248.794C225.115 252.3 225.756 255.724 226.139 258.858C226.476 261.999 226.581 264.845 226.473 267.227C226.284 271.995 225.574 274.87 225.365 274.837C225.065 274.8 225.305 271.89 225.153 267.226C225.092 264.895 224.854 262.128 224.435 259.084C223.969 256.046 223.295 252.734 222.317 249.329C221.306 245.933 220.087 242.783 218.843 239.978C217.557 237.191 216.267 234.738 215.064 232.746C212.68 228.749 210.913 226.438 211.144 226.242Z" fill="white"/>
<path fill-rule="evenodd" clip-rule="evenodd" d="M137.156 380.368L135.532 377.02L90.3121 411.896L110.04 444.156L155.053 405.846L137.156 380.368Z" fill="#FF7B5B"/>
<path fill-rule="evenodd" clip-rule="evenodd" d="M92.2071 412.641L109.538 442.894L110.646 442.395L95.2126 414.108L92.2071 412.641Z" fill="#D7D4D4"/>
<path fill-rule="evenodd" clip-rule="evenodd" d="M136.263 379.705L92.2071 412.641C92.2071 412.641 92.3918 413.348 93.4851 413.784C94.5797 414.22 95.2126 414.109 95.2126 414.109L141.53 382.111C141.53 382.111 138.859 381.485 137.891 380.755C136.921 380.023 136.263 379.705 136.263 379.705Z" fill="#F5F3F3"/>
<path fill-rule="evenodd" clip-rule="evenodd" d="M142.662 380.82L94.3854 413.37L110.065 443.365L112.591 447.519L160.869 411.452C160.869 411.452 155.784 403.791 152.731 399.166C149.678 394.54 143.685 383.632 143.359 382.933C143.032 382.234 142.662 380.82 142.662 380.82Z" fill="#FF7B5B"/>
<path fill-rule="evenodd" clip-rule="evenodd" d="M540.786 156.106L542.15 153.294L580.122 182.581L563.556 209.671L525.757 177.5L540.786 156.106Z" fill="#775298"/>
<path fill-rule="evenodd" clip-rule="evenodd" d="M578.531 183.207L563.979 208.611L563.047 208.193L576.008 184.439L578.531 183.207Z" fill="#D7D4D4"/>
<path fill-rule="evenodd" clip-rule="evenodd" d="M541.537 155.549L578.532 183.206C578.532 183.206 578.375 183.8 577.459 184.166C576.539 184.532 576.007 184.439 576.007 184.439L537.113 157.569C537.113 157.569 539.356 157.044 540.169 156.43C540.983 155.816 541.537 155.549 541.537 155.549Z" fill="#F5F3F3"/>
<path fill-rule="evenodd" clip-rule="evenodd" d="M536.163 156.486L576.702 183.818L563.537 209.007L561.415 212.494L520.873 182.207C520.873 182.207 525.144 175.774 527.707 171.89C530.273 168.006 535.304 158.846 535.577 158.259C535.852 157.674 536.163 156.486 536.163 156.486Z" fill="#775298"/>
<path fill-rule="evenodd" clip-rule="evenodd" d="M83.1693 103.395C83.1693 103.395 80.3023 105.398 81.7352 108.737C83.1693 112.077 89.4546 121.983 97.9455 121.648C98.2932 121.636 87.2491 103.395 87.2491 103.395H83.1693Z" fill="#FF7B5B"/>
<path fill-rule="evenodd" clip-rule="evenodd" d="M70.1804 286.017C70.1804 286.017 59.5627 276.443 56.1633 278.158C52.0103 280.254 28.2393 303.763 29.1682 314.839C29.5499 319.375 34.7813 315.489 44.1033 305.728C53.4281 295.968 65.169 300.151 65.169 300.151L70.1804 286.017Z" fill="#775298"/>
<path fill-rule="evenodd" clip-rule="evenodd" d="M95.9771 302.164L83.1592 294.402C83.1592 294.402 49.9345 325.843 55.1252 330.035C59.0623 333.215 61.3765 330.363 70.6999 320.602C80.022 310.844 91.8335 316.455 91.8335 316.455L95.9771 302.164Z" fill="#775298"/>
<path fill-rule="evenodd" clip-rule="evenodd" d="M174.276 198.723L176.68 233.176L123.322 219.145L174.276 198.723Z" fill="#F3A683"/>
<path fill-rule="evenodd" clip-rule="evenodd" d="M123.322 220.33C123.322 220.33 169.995 223.3 176.21 221.206C176.21 221.206 185.331 311.654 169.101 321.412C152.871 331.173 116.449 316.881 116.449 316.881L126.283 297.362L147.486 295.968V261.113L145.965 261.461L123.322 220.33Z" fill="#112129"/>
<path fill-rule="evenodd" clip-rule="evenodd" d="M64.8169 282.026C64.8169 282.026 53.0774 286.906 56.876 298.758C56.876 298.758 96.9497 330.476 116.449 323.156C127.374 319.055 139.109 287.769 147.319 261.039L176.21 221.206C176.21 221.206 162.584 221.894 158.039 221.876C149.351 221.844 123.323 220.33 123.323 220.33C123.323 220.33 109.727 292.135 104.882 293.877C100.038 295.618 64.8169 282.026 64.8169 282.026Z" fill="#22343D"/>
<path fill-rule="evenodd" clip-rule="evenodd" d="M134.198 130.271C134.198 130.271 162.17 103.78 167.004 96.8076C171.837 89.8366 182.199 66.4833 194.972 56.7239L188.758 43.4783C188.758 43.4783 192.558 41.3877 194.972 46.9631C194.972 46.9631 203.95 28.8398 206.022 29.1867C208.096 29.5349 201.88 43.1301 201.88 43.1301C201.88 43.1301 210.515 30.5809 212.931 30.9305C215.345 31.2787 206.715 45.037 206.715 45.037C206.715 45.037 216.382 33.7189 217.764 35.1131C219.145 36.5073 210.167 45.037 210.167 45.037C210.167 45.037 219.835 39.4341 220.872 41.2807C221.908 43.1301 211.203 48.0091 211.203 48.0091C211.203 48.0091 210.167 56.0261 203.607 59.511C203.607 59.511 190.617 94.9377 178.876 106.44L141.16 146.006L134.198 130.271Z" fill="#FFC6B2"/>
<path fill-rule="evenodd" clip-rule="evenodd" d="M100.809 144.001C100.809 144.001 74.3052 171.986 67.3544 176.8C60.4022 181.612 37.1718 191.854 27.3853 204.658L14.3216 198.26C14.3216 198.26 12.2152 202.074 17.7169 204.565C17.7169 204.565 -0.322842 213.458 0.0044616 215.554C0.329049 217.648 13.8544 211.501 13.8544 211.501C13.8544 211.501 1.3422 220.1 1.66543 222.541C1.98866 224.983 15.6974 216.398 15.6974 216.398C15.6974 216.398 4.39523 226.051 5.7642 227.457C7.13045 228.865 15.6662 219.884 15.6662 219.884C15.6662 219.884 10.0246 229.59 11.8472 230.653C13.667 231.715 18.601 220.956 18.601 220.956C18.601 220.956 26.5514 219.989 30.0675 213.397C30.0675 213.397 63.31 200.046 74.8158 188.303L116.184 158.715L100.809 144.001Z" fill="#FFC6B2"/>
<path fill-rule="evenodd" clip-rule="evenodd" d="M110.745 132.847L97.3401 146.093L100.739 161.024C100.739 161.024 113.946 193.028 115.942 200.835C119.045 212.976 114.026 231.487 114.026 231.487C114.026 231.487 136.414 229.61 156.786 228.914C177.156 228.216 183.82 221.592 183.82 221.592C183.82 221.592 166.158 162.213 153.964 145.614C141.768 129.018 137.332 123.822 137.332 123.822L119.377 127.784L110.745 132.847Z" fill="white"/>
<path fill-rule="evenodd" clip-rule="evenodd" d="M150.085 143.657L164.051 134.649C164.051 134.649 166.185 124.998 149.342 113.614L129.591 126.107L150.085 143.657Z" fill="white"/>
<path fill-rule="evenodd" clip-rule="evenodd" d="M100.165 145.045C92.5078 146.13 78.5152 165.718 76.9547 165.681C76.9547 165.681 86.8024 181.903 94.6033 182.43C94.6033 182.43 128.932 140.972 100.165 145.045Z" fill="white"/>
<path fill-rule="evenodd" clip-rule="evenodd" d="M127.194 132.299C127.194 132.299 116.064 123.905 116.45 120.559C116.548 119.716 118.09 118.348 118.491 117.133C120.649 110.598 110.245 93.7594 103.852 90.2101C98.8229 87.419 101.027 87.1722 90.4434 93.5208C79.8596 99.8695 85.8896 110.848 90.6158 116.526C95.084 121.893 100.201 124.192 104.805 124.58L111.351 139.257L127.194 132.299Z" fill="#FFC6B2"/>
<path fill-rule="evenodd" clip-rule="evenodd" d="M107.111 143.951C105.006 138.739 108.992 132.174 116.015 129.283C123.04 126.39 130.438 128.271 132.547 133.48C134.651 138.691 127.583 146.525 123.638 148.149C119.693 149.774 109.215 149.161 107.111 143.951Z" fill="#FFC6B2"/>
<path fill-rule="evenodd" clip-rule="evenodd" d="M90.6163 116.526C90.6163 116.526 87.0065 116.325 86.6058 118.752C86.2038 121.182 93.2225 121.182 95.8301 119.36L90.6163 116.526Z" fill="#FFC6B2"/>
<path fill-rule="evenodd" clip-rule="evenodd" d="M92.4214 118.753C91.7356 114.364 87.103 111.102 87.3339 106.826C89.5544 106.844 90.9804 104.067 89.97 101.694C89.5721 100.762 88.8985 99.9643 88.4679 99.0445C88.0388 98.126 87.9247 96.9223 88.5834 96.4027C88.8957 96.1574 89.3181 96.1149 89.7228 96.0737C93.0149 95.7324 98.6551 96.729 101.685 95.5953C104.57 94.5164 107.661 92.4175 107.361 88.8505C107.098 85.744 104.381 83.2257 101.885 81.3229C100.455 80.2316 96.3681 77.3788 94.8266 77.6379C92.473 78.0327 91.9026 81.2022 91.7328 83.8549C90.0868 82.2729 87.6585 82.5265 86.2271 83.8138C84.7956 85.1011 84.1179 87.1464 83.4946 89.1205C82.8698 91.096 82.2084 93.1469 80.796 94.4588C79.48 95.6817 77.398 96.607 77.671 98.6867C77.9956 101.165 81.2034 102.047 82.6865 104.161C82.3211 103.642 82.0115 106.952 82.222 107.513C82.8549 109.203 84.4344 110.321 85.5765 111.614C88.0089 114.37 89.1986 117.144 92.4214 118.753Z" fill="#FF7B5B"/>
<path fill-rule="evenodd" clip-rule="evenodd" d="M112.587 108.718L104.363 113.012C104.363 113.012 114.242 120.25 112.587 108.718Z" fill="white"/>
<path fill-rule="evenodd" clip-rule="evenodd" d="M101.272 110.421C101.722 111.281 101.056 112.526 99.7865 113.201C98.5167 113.875 97.1232 113.724 96.6737 112.863C96.2255 112.003 96.8896 110.759 98.1595 110.083C99.4307 109.409 100.823 109.56 101.272 110.421Z" fill="#FFB2A0"/>
<path fill-rule="evenodd" clip-rule="evenodd" d="M113.282 102.14C113.731 103.001 113.066 104.245 111.796 104.92C110.526 105.594 109.133 105.444 108.683 104.583C108.235 103.722 108.899 102.477 110.169 101.803C111.44 101.128 112.832 101.279 113.282 102.14Z" fill="#FFB2A0"/>
<path fill-rule="evenodd" clip-rule="evenodd" d="M106.846 108.414C106.808 108.366 106.961 108.162 107.317 107.903C107.657 107.638 108.248 107.353 108.686 106.876C109.121 106.414 109.277 105.45 108.612 105.314C107.92 105.077 107.135 105.878 106.235 106.639C106.012 106.825 105.792 107.01 105.573 107.192C105.37 107.382 104.941 107.659 104.495 107.602C103.646 107.464 103.285 106.892 102.959 106.51C102.307 105.665 101.905 104.781 101.682 104.016C101.241 102.47 101.439 101.472 101.545 101.48C101.693 101.473 101.742 102.433 102.303 103.793C102.586 104.468 103.008 105.236 103.623 105.961C103.923 106.329 104.301 106.672 104.57 106.682C104.683 106.688 104.771 106.65 104.983 106.47C105.199 106.288 105.416 106.103 105.636 105.916C106.09 105.546 106.482 105.172 107.001 104.824C107.505 104.481 108.223 104.264 108.867 104.485C109.554 104.667 109.957 105.476 109.838 106.038C109.76 106.611 109.478 107.033 109.157 107.342C108.48 107.914 107.874 108.052 107.492 108.225C107.101 108.374 106.887 108.467 106.846 108.414Z" fill="#FF7B5B"/>
<path fill-rule="evenodd" clip-rule="evenodd" d="M104.805 124.58C104.805 124.58 110.052 124.61 112.898 122.84C112.898 122.84 110.49 125.826 105.672 126.599L104.805 124.58Z" fill="#FFA192"/>
<path fill-rule="evenodd" clip-rule="evenodd" d="M107.081 100.831C107.033 101.093 106.3 101.174 105.524 101.519C104.738 101.84 104.17 102.316 103.952 102.168C103.728 102.048 104.098 101.102 105.16 100.651C106.221 100.198 107.15 100.584 107.081 100.831Z" fill="#22343D"/>
<path fill-rule="evenodd" clip-rule="evenodd" d="M96.7994 107.639C96.6011 107.491 96.9121 106.638 97.6672 105.784C98.4318 104.912 99.4083 104.621 99.5115 104.865C99.6201 105.102 99.0253 105.655 98.3557 106.421C97.6753 107.185 97.0139 107.8 96.7994 107.639Z" fill="#22343D"/>
<path fill-rule="evenodd" clip-rule="evenodd" d="M92.8139 106.323C92.3888 106.005 92.0574 104.643 93.6844 102.809C95.3264 100.934 97.1612 101.264 97.3812 101.785C97.6175 102.296 97.0064 103.024 95.5654 104.673C94.1027 106.317 93.2743 106.671 92.8139 106.323Z" fill="#FF7B5B"/>
<path fill-rule="evenodd" clip-rule="evenodd" d="M101.451 99.0973C101.216 98.6531 101.475 97.3604 103.591 96.4597C105.737 95.5288 107.167 96.5556 107.146 97.0889C107.142 97.6195 106.334 97.991 104.449 98.8108C102.551 99.6155 101.705 99.5812 101.451 99.0973Z" fill="#FF7B5B"/>
<path fill-rule="evenodd" clip-rule="evenodd" d="M552.766 111.957C552.905 112.095 550.626 114.684 545.897 117.502C541.226 120.318 533.878 123.109 525.425 123.172C516.972 123.235 509.582 120.554 504.871 117.808C500.103 115.061 497.786 112.505 497.922 112.364C498.119 112.113 500.71 114.268 505.485 116.627C510.214 118.996 517.341 121.347 525.41 121.289C533.481 121.227 540.572 118.77 545.267 116.331C550.005 113.901 552.567 111.707 552.766 111.957Z" fill="#775298"/>
<path fill-rule="evenodd" clip-rule="evenodd" d="M501.198 108.047C501.069 108.334 498.546 107.277 494.295 106.32C492.176 105.815 489.605 105.426 486.742 105.067C483.868 104.746 480.692 104.491 477.337 104.25C473.981 104.013 470.77 103.74 467.852 103.375C464.935 102.984 462.314 102.52 460.155 101.93C455.819 100.788 453.364 99.4365 453.45 99.246C453.562 98.9581 456.144 99.8478 460.437 100.628C462.579 101.04 465.163 101.36 468.041 101.649C470.926 101.915 474.112 102.133 477.472 102.372C480.834 102.613 484.052 102.924 486.966 103.346C489.879 103.808 492.492 104.346 494.63 105.031C498.923 106.354 501.294 107.868 501.198 108.047Z" fill="#775298"/>
<mask id="mask0" mask-type="alpha" maskUnits="userSpaceOnUse" x="433" y="35" width="170" height="85">
<path fill-rule="evenodd" clip-rule="evenodd" d="M433.032 35.4189H602.356V119.159H433.032V35.4189Z" fill="white"/>
</mask>
<g mask="url(#mask0)">
<path fill-rule="evenodd" clip-rule="evenodd" d="M450.063 52.3804C458.122 50.6544 466.472 52.1405 474.598 53.5073C482.724 54.8741 491.161 56.1065 499.106 53.9049C513.45 49.9306 524.34 35.3018 539.215 35.4197C545.34 35.4676 551.113 38.108 557.081 39.5049C564.491 41.2405 572.21 41.054 579.716 42.292C587.224 43.5299 594.979 46.5774 599.222 52.9507C604.255 60.514 602.875 71.1823 597.593 78.5714C592.312 85.9619 583.853 90.4612 575.187 93.0111C569.142 94.7892 562.702 95.8173 557.471 99.3556C552.179 102.935 548.724 108.696 543.795 112.766C531.424 122.978 512.171 120.051 499.393 110.364C496.182 107.931 493.206 105.107 489.599 103.326C474.928 96.0764 453.827 105.673 441.191 92.4833C428.359 79.0883 430.187 56.6357 450.063 52.3804Z" fill="#775298"/>
</g>
<path fill-rule="evenodd" clip-rule="evenodd" d="M446.037 311.795C446.037 311.795 459.479 340.878 461.052 335.493C462.62 330.106 462.102 317.171 461.26 315.325C460.414 313.478 454.919 305.32 454.919 305.32L446.037 311.795Z" fill="#FFB2A0"/>
<path fill-rule="evenodd" clip-rule="evenodd" d="M543.238 76.6127C544.482 78.2208 543.651 76.4934 545.06 78.813C550.913 78.6074 554.842 73.6077 554.842 73.6077C554.842 73.6077 564.133 73.8558 564.026 72.1806C563.92 70.5026 555.119 71.1291 555.119 71.1291C555.119 71.1291 564.429 68.1776 563.918 66.7038C563.41 65.2315 552.662 69.9282 552.662 69.9282C552.662 69.9282 563.508 63.1326 561.905 62.0428C560.304 60.9557 549.869 66.8875 549.869 66.8875C549.869 66.8875 558.938 59.3682 557.579 58.3989C556.222 57.4297 543.642 67.2166 543.642 67.2166C543.825 62.402 540.404 62.5706 540.404 62.5706L540.545 74.326C540.545 74.326 542.665 75.8724 543.238 76.6127Z" fill="#FFC6B2"/>
<path fill-rule="evenodd" clip-rule="evenodd" d="M405.522 23.408C403.533 23.7781 405.075 23.0804 402.494 23.8755C398.256 19.7957 398.818 13.384 398.818 13.384C398.818 13.384 391.71 7.34381 392.888 6.16347C394.074 4.98038 400.241 11.3468 400.241 11.3468C400.241 11.3468 395.223 2.89936 396.573 2.13988C397.922 1.3804 402.872 12.0953 402.872 12.0953C402.872 12.0953 399.229 -0.255079 401.144 0.00402047C403.057 0.26312 406.96 11.6909 406.96 11.6909C406.96 11.6909 405.124 -0.00831762 406.774 0.176754C408.427 0.360454 411.399 16.1107 411.399 16.1107C414.428 12.3873 416.874 14.807 416.874 14.807L409.197 23.3299C409.197 23.3299 406.436 23.2394 405.522 23.408Z" fill="#FFC6B2"/>
<path fill-rule="evenodd" clip-rule="evenodd" d="M453.744 72.512C451.173 72.0857 444.957 76.256 441.847 83.0529C440.106 86.8571 438.908 90.7217 440.906 96.9085C441.847 99.819 443.817 100.184 444.257 101.487C444.812 103.138 442.972 108.34 442.972 108.34L450.31 111.332C450.786 107.758 451.327 104.162 454.935 102.61C456.285 102.029 457.73 101.661 459.004 100.924C462.442 98.9347 464.278 94.5835 465.69 91.0205C466.744 88.3596 460.19 73.5786 453.744 72.512Z" fill="#FFC6B2"/>
<path fill-rule="evenodd" clip-rule="evenodd" d="M445.009 173.524L432.716 168.545C432.716 168.545 396.232 236.839 396.384 255.788C396.535 274.735 446.493 312.672 446.493 312.672L454.918 305.321C454.918 305.321 439.494 278.173 431.249 268.602C423.003 259.027 445.009 173.524 445.009 173.524Z" fill="#FFB2A0"/>
<path fill-rule="evenodd" clip-rule="evenodd" d="M506.049 251.321C506.049 251.321 533.144 238.344 527.7 237.198C522.255 236.058 509.522 237.63 507.768 238.628C506.012 239.628 498.404 245.817 498.404 245.817L506.049 251.321Z" fill="#FFC6B2"/>
<path fill-rule="evenodd" clip-rule="evenodd" d="M457.085 172.932L438.436 179.781C438.436 179.781 419.781 262.605 426.903 275.608C434.022 288.616 454.023 280.009 482.508 264.316L506.367 251.169L498.403 245.818C498.403 245.818 470.639 251.31 462.842 256.786C462.842 256.786 466.911 245.148 472.337 228.72C477.761 212.292 481.503 195.521 457.085 172.932Z" fill="#FFC6B2"/>
<path fill-rule="evenodd" clip-rule="evenodd" d="M434.13 116.506C434.13 111.003 435.885 107.024 441.336 107.024C446.788 107.024 454.324 108.952 454.324 114.457C454.324 119.962 450.028 128.899 444.574 128.899C439.123 128.899 434.13 122.012 434.13 116.506Z" fill="#FFC6B2"/>
<path fill-rule="evenodd" clip-rule="evenodd" d="M438.435 106.235C438.435 106.235 421.483 87.7168 418.092 69.5757C414.7 51.4374 408.938 22.0028 408.938 22.0028L402.496 23.8755C402.496 23.8755 399.443 64.1017 402.496 70.2612C405.546 76.422 420.457 117.437 424.997 128.208L438.435 106.235Z" fill="#FFC6B2"/>
<path fill-rule="evenodd" clip-rule="evenodd" d="M456.648 120.667C456.648 120.667 457.951 114.907 479.388 107.078C500.824 99.2499 541.266 73.876 541.266 73.876L545.301 78.5357C545.301 78.5357 523.327 104.156 510.543 108.65C497.759 113.145 470.606 130.864 467.813 132.282C463.588 134.427 463.639 137.126 456.648 120.667Z" fill="#FFC6B2"/>
<path fill-rule="evenodd" clip-rule="evenodd" d="M438.435 106.235C438.435 106.235 421.212 111.869 421.212 138.324C421.212 138.324 421.222 174.555 425.282 181.146C425.282 181.146 431.881 182.853 440.108 181.146C448.735 179.356 457.085 172.932 457.085 172.932L470.633 131.875L469.013 112.638L450.592 109.048C450.592 109.048 455.876 133.975 436.756 123.259C433.041 121.176 442.223 107.034 442.223 107.034L438.435 106.235Z" fill="#22343D"/>
<path fill-rule="evenodd" clip-rule="evenodd" d="M423.862 127.75L415.375 109.902C415.375 109.902 416.592 99.0751 432.172 95.1954C432.172 95.1954 433.748 100.653 435.475 102.738C437.201 104.822 442.229 107.04 442.229 107.04L423.862 127.75Z" fill="#22343D"/>
<path fill-rule="evenodd" clip-rule="evenodd" d="M455.947 134.924L482.934 129.34C482.934 129.34 487.626 119.528 476.501 107.854C476.501 107.854 455.45 109.138 452.726 109.366C450.044 109.591 451.885 111.676 451.885 111.676L455.947 134.924Z" fill="#22343D"/>
<path fill-rule="evenodd" clip-rule="evenodd" d="M425.239 172.321C425.239 172.321 399.713 219.959 395.496 228.471C395.496 228.471 470.802 263.389 501.371 221.358C501.371 221.358 483.982 184.207 457.1 170.063L445.503 166.558L425.692 172.092" fill="#22343D"/>
<path fill-rule="evenodd" clip-rule="evenodd" d="M464.702 90.5701C464.702 90.5701 467.61 87.635 469.398 89.6667C471.187 91.6984 462.913 94.6335 462.913 94.6335L464.702 90.5701Z" fill="#FFC6B2"/>
<path fill-rule="evenodd" clip-rule="evenodd" d="M517.888 50.5402C517.916 50.6416 516.793 51.1324 514.649 51.6465C512.51 52.166 509.336 52.6376 505.393 52.7185C501.453 52.798 496.768 52.4443 491.64 51.7424C486.507 51.0556 480.932 50.0466 475.067 49.4009C469.211 48.769 463.58 48.6538 458.593 49.4667C453.605 50.266 449.287 51.9152 445.987 53.8413C442.687 55.7825 440.39 57.9362 438.98 59.5661C437.563 61.1975 436.924 62.2394 436.78 62.1517C436.702 62.1105 437.128 60.937 438.413 59.1083C439.689 57.285 441.942 54.879 445.302 52.7034C448.66 50.5415 453.122 48.684 458.308 47.7545C463.5 46.8113 469.307 46.884 475.265 47.5283C481.228 48.185 486.81 49.2515 491.883 50.0247C496.954 50.813 501.538 51.2955 505.397 51.386C513.134 51.604 517.817 50.218 517.888 50.5402Z" fill="#775298"/>
<path fill-rule="evenodd" clip-rule="evenodd" d="M449.895 88.904C449.887 89.0192 449.058 89.1001 447.794 88.6765C447.481 88.5654 447.112 88.4201 446.768 88.102C446.599 87.943 446.441 87.7319 446.345 87.4783C446.206 87.1232 446.217 86.7202 446.354 86.4131C446.395 86.3514 446.392 86.2047 446.472 86.202L446.718 86.1938C446.876 86.1718 447.062 86.2239 447.244 86.2582C447.578 86.3226 447.685 86.313 447.923 86.3295C448.34 86.3391 448.772 86.2952 449.204 86.1992C450.969 85.8236 452.151 84.5267 452.68 83.4602C453.236 82.3868 453.285 81.5793 453.433 81.5889C453.537 81.5752 453.744 82.4334 453.285 83.7289C453.051 84.3636 452.645 85.0916 451.989 85.7304C451.337 86.3679 450.434 86.8915 449.409 87.1177C448.897 87.2329 448.382 87.2768 447.886 87.2507C447.67 87.2398 447.331 87.1959 447.232 87.1739C447.141 87.1589 447.151 87.1383 447.134 87.1493C447.123 87.1602 447.118 87.1781 447.119 87.2041C447.156 87.3275 447.222 87.4454 447.316 87.5509C447.505 87.7662 447.779 87.9266 448.046 88.0609C449.14 88.6024 449.915 88.7628 449.895 88.904Z" fill="#FF7B5B"/>
<path fill-rule="evenodd" clip-rule="evenodd" d="M443.841 89.2213L453.782 93.175C453.782 93.175 445.046 99.2563 443.841 89.2213Z" fill="white"/>
<path fill-rule="evenodd" clip-rule="evenodd" d="M458.028 91.1237C457.675 91.8009 456.58 91.9188 455.582 91.3883C454.583 90.8591 454.061 89.8803 454.412 89.2044C454.765 88.5272 455.861 88.4079 456.86 88.9385C457.858 89.469 458.381 90.4465 458.028 91.1237Z" fill="#FFB2A0"/>
<path fill-rule="evenodd" clip-rule="evenodd" d="M446.933 85.1855C446.631 85.8874 445.549 86.0902 444.514 85.6379C443.479 85.1855 442.883 84.2505 443.184 83.5486C443.484 82.8467 444.568 82.6438 445.603 83.0962C446.638 83.5486 447.234 84.4836 446.933 85.1855Z" fill="#FFB2A0"/>
<path fill-rule="evenodd" clip-rule="evenodd" d="M443.25 100.227C443.25 100.227 446.735 103.173 450.371 102.224C450.371 102.224 449.117 104.121 444.292 103.425C444.292 103.425 444.692 101.334 443.25 100.227Z" fill="#FFA192"/>
<path fill-rule="evenodd" clip-rule="evenodd" d="M457.074 84.8214C457.074 85.2601 456.721 85.6165 456.286 85.6165C455.852 85.6165 455.499 85.2601 455.499 84.8214C455.499 84.3827 455.852 84.0262 456.286 84.0262C456.721 84.0262 457.074 84.3827 457.074 84.8214Z" fill="#22343D"/>
<path fill-rule="evenodd" clip-rule="evenodd" d="M450.628 82.4779C450.628 82.9165 450.275 83.273 449.841 83.273C449.406 83.273 449.054 82.9165 449.054 82.4779C449.054 82.0392 449.406 81.6827 449.841 81.6827C450.275 81.6827 450.628 82.0392 450.628 82.4779Z" fill="#22343D"/>
<path fill-rule="evenodd" clip-rule="evenodd" d="M459.605 82.7034C459.361 82.8076 458.892 82.2332 458.18 81.7684C457.483 81.2831 456.777 81.0651 456.778 80.7992C456.755 80.5442 457.741 80.3372 458.699 80.9856C459.658 81.63 459.848 82.6266 459.605 82.7034Z" fill="#775298"/>
<path fill-rule="evenodd" clip-rule="evenodd" d="M448.245 78.8458C448.229 78.5976 449.075 78.2851 450.208 78.3152C451.361 78.3399 452.212 78.9047 452.094 79.1405C451.985 79.379 451.183 79.2762 450.171 79.257C449.154 79.2269 448.261 79.1158 448.245 78.8458Z" fill="#775298"/>
<path fill-rule="evenodd" clip-rule="evenodd" d="M451.795 323.612C451.795 323.612 455.93 338.429 460.2 337.216C464.47 336.004 461.259 315.325 461.259 315.325L456.999 308.528C456.999 308.528 461.001 343.142 451.795 323.612Z" fill="#22343D"/>
<path fill-rule="evenodd" clip-rule="evenodd" d="M503.941 241.469C503.941 241.469 506.948 238.157 510.593 237.606C514.24 237.054 527.271 235.489 529.184 237.237C531.099 238.985 518.622 244.846 518.622 244.846C518.622 244.846 522.97 242.049 521.165 241.01C517.975 239.169 503.941 241.469 503.941 241.469Z" fill="#22343D"/>
<path fill-rule="evenodd" clip-rule="evenodd" d="M498.771 245.436L502.851 253.797L505.077 252.55L499.636 244.313L498.771 245.436Z" fill="#22343D"/>
<path fill-rule="evenodd" clip-rule="evenodd" d="M453.15 301.968L443.135 311.079L446.103 313.576L454.51 304.34L453.15 301.968Z" fill="#22343D"/>
<path fill-rule="evenodd" clip-rule="evenodd" d="M243.778 211.266C240.93 204.132 239.836 196.189 235.586 189.805C229.47 180.618 217.724 176.06 212.762 166.19C210.654 161.997 209.993 157.202 209.971 152.501C209.93 143.201 212.688 133.314 219.805 127.404C227.982 120.613 240.251 120.707 249.829 125.27C259.403 129.832 266.719 138.114 272.939 146.764C279.161 155.413 284.607 164.695 291.851 172.49C297.222 178.27 303.593 183.255 307.639 190.045C318.731 208.66 307.319 232.213 287.737 238.932C270.532 244.834 249.731 226.182 243.778 211.266Z" fill="#22343D"/>
<path fill-rule="evenodd" clip-rule="evenodd" d="M219.266 342.557C220.969 343.971 219.112 342.992 221.589 344.62C221.036 350.868 215.312 354.803 215.312 354.803C215.312 354.803 215.07 364.749 213.231 364.545C211.388 364.343 212.568 354.968 212.568 354.968C212.568 354.968 208.799 364.764 207.205 364.141C205.612 363.52 211.381 352.278 211.381 352.278C211.381 352.278 203.295 363.513 202.184 361.742C201.075 359.972 208.19 349.131 208.19 349.131C208.19 349.131 199.404 358.428 198.411 356.923C197.42 355.422 208.896 342.491 208.896 342.491C203.584 342.432 203.961 338.783 203.961 338.783L216.898 339.558C216.898 339.558 218.483 341.905 219.266 342.557Z" fill="#FFC6B2"/>
<path fill-rule="evenodd" clip-rule="evenodd" d="M342.86 154.979C345.074 155.371 343.356 154.631 346.229 155.474C350.947 151.147 350.32 144.349 350.32 144.349C350.32 144.349 358.233 137.944 356.921 136.693C355.601 135.438 348.737 142.187 348.737 142.187C348.737 142.187 354.321 133.231 352.819 132.425C351.32 131.62 345.81 142.982 345.81 142.982C345.81 142.982 349.864 129.886 347.732 130.16C345.605 130.436 341.261 142.553 341.261 142.553C341.261 142.553 343.303 130.148 341.466 130.344C339.627 130.539 336.652 146.791 336.652 146.791C332.32 143.232 329.287 145.51 329.287 145.51L338.77 154.895C338.77 154.895 341.843 154.801 342.86 154.979Z" fill="#FFC6B2"/>
<path fill-rule="evenodd" clip-rule="evenodd" d="M288.699 209.297C292.701 208.666 304.907 216.65 301.801 232.864C301.541 234.225 299.78 237.222 299.341 238.461C298.787 240.031 303.105 245.776 303.105 245.776L291.959 249.371C291.483 245.972 292.283 241.006 288.681 239.529C287.334 238.977 285.892 238.627 284.621 237.927C281.189 236.035 279.357 231.896 277.947 228.508C276.894 225.976 276.093 223.254 276.123 220.507C276.196 213.589 282.266 210.311 288.699 209.297Z" fill="#FFC6B2"/>
<path fill-rule="evenodd" clip-rule="evenodd" d="M311.019 253.702C311.019 247.866 309.186 245.638 303.118 245.638C297.05 245.638 289.039 247.866 289.039 253.702C289.039 259.539 293.324 266.843 299.395 266.843C305.462 266.843 311.019 259.539 311.019 253.702Z" fill="#FFC6B2"/>
<path fill-rule="evenodd" clip-rule="evenodd" d="M306.227 242.809C306.227 242.809 325.095 223.173 328.87 203.936C332.645 184.701 339.058 153.489 339.058 153.489L346.229 155.474C346.229 155.474 349.627 198.13 346.229 204.663C342.834 211.197 323.585 256.564 323.963 268.177L306.227 242.809Z" fill="#FFC6B2"/>
<path fill-rule="evenodd" clip-rule="evenodd" d="M272.593 252.317C272.593 252.317 266.178 253.406 256.365 275.909C246.553 298.411 216.362 340.303 216.362 340.303L221.269 344.864C221.269 344.864 250.705 322.727 256.365 309.299C262.025 295.871 269.195 279.176 272.593 279.9C275.989 280.628 290.33 260.663 272.593 252.317Z" fill="#FFC6B2"/>
<path fill-rule="evenodd" clip-rule="evenodd" d="M323.108 271.176L331.894 246.699C331.894 246.699 330.538 235.219 313.198 231.104L303.375 245.39L323.108 271.176Z" fill="#FF7B5B"/>
<path fill-rule="evenodd" clip-rule="evenodd" d="M275.522 250.439C275.522 250.439 265.157 251.321 256.756 269.947C256.756 269.947 265.995 282.822 272.755 283.257C272.755 283.257 297.859 261.597 275.522 250.439Z" fill="#FF7B5B"/>
<path fill-rule="evenodd" clip-rule="evenodd" d="M304.002 471.328C304.002 471.328 289.039 502.169 287.29 496.459C285.544 490.747 286.121 477.029 287.058 475.072C287.999 473.113 294.116 464.462 294.116 464.462L304.002 471.328Z" fill="#FFC6B2"/>
<path fill-rule="evenodd" clip-rule="evenodd" d="M305.145 324.703L318.828 319.423C318.828 319.423 359.435 391.844 359.267 411.938C359.098 432.028 303.495 472.259 303.495 472.259L294.116 464.462C294.116 464.462 320.471 425.348 329.648 415.198C334.237 410.121 301.384 385.245 296.408 361.309C291.432 337.373 305.145 324.703 305.145 324.703Z" fill="#654287"/>
<path fill-rule="evenodd" clip-rule="evenodd" d="M222.876 455.172C222.876 455.172 194.888 475.996 196.052 470.151C197.22 464.302 204.266 452.364 206.033 451.036C207.802 449.71 217.358 444.714 217.358 444.714L222.876 455.172Z" fill="#FFC6B2"/>
<path fill-rule="evenodd" clip-rule="evenodd" d="M267.918 350.349L308.4 326.667C308.4 326.667 310.007 408.931 300.288 426.719C290.571 444.506 221.982 455.775 221.982 455.775L217.358 444.715C217.358 444.715 259.674 419.265 272.666 414.285C285.659 409.302 267.918 350.349 267.918 350.349Z" fill="#775298"/>
<path fill-rule="evenodd" clip-rule="evenodd" d="M292.027 310.467C292.027 310.467 262.22 321.12 267.918 350.349C273.616 379.577 283.113 385.056 283.113 385.056L300.207 356.743L317.37 319.664L300.207 317.467L292.027 310.467Z" fill="#775298"/>
<path fill-rule="evenodd" clip-rule="evenodd" d="M306.227 242.809C306.227 242.809 328.173 255.224 328.173 283.277C328.173 283.277 325.385 315.259 320.866 322.246C320.866 322.246 313.522 324.057 304.364 322.246C294.762 320.349 285.47 313.537 285.47 313.537L277.97 274.381L272.136 251.519L275.299 250.466L291.804 248.636C291.804 248.636 289.433 273.523 307.862 261.164C311.744 258.561 303.03 245.584 303.03 245.584L306.227 242.809Z" fill="#FF7B5B"/>
<path fill-rule="evenodd" clip-rule="evenodd" d="M319.66 136.802L365.672 163.897L391.555 114.547L348.418 90.3564L319.66 136.802Z" fill="white"/>
<path fill-rule="evenodd" clip-rule="evenodd" d="M383.671 373.034L416.58 352.471L389.392 304.567L359.309 324.257L383.671 373.034Z" fill="white"/>
<path fill-rule="evenodd" clip-rule="evenodd" d="M221.641 168.908C221.727 168.83 222.743 169.761 224.35 171.659C225.95 173.561 228.132 176.452 230.323 180.354C232.522 184.239 234.697 189.169 236.251 194.891C237.859 200.57 238.937 206.955 241.409 213.104C242.693 216.142 244.248 218.971 246.099 221.471C247.966 223.955 250.037 226.135 252.169 228.036C256.526 231.738 261.091 234.284 265.158 235.754C269.222 237.246 272.703 237.915 275.123 238.155C277.54 238.425 278.907 238.465 278.908 238.625C278.915 238.725 277.552 238.935 275.07 238.887C272.589 238.868 268.977 238.389 264.724 237.013C260.467 235.656 255.658 233.144 251.06 229.362C248.804 227.418 246.612 225.167 244.637 222.58C242.679 219.978 241.025 217.003 239.682 213.819C237.107 207.391 236.089 200.95 234.591 195.346C233.161 189.722 231.173 184.883 229.163 180.99C227.165 177.086 225.182 174.126 223.777 172.108C222.363 170.094 221.535 169.003 221.641 168.908Z" fill="#22343D"/>
<path fill-rule="evenodd" clip-rule="evenodd" d="M278.172 137.209C278.51 137.157 278.839 141.729 281.373 148.492C282.638 151.86 284.521 155.736 287.225 159.621C288.576 161.566 290.131 163.483 291.891 165.392C293.639 167.31 295.543 169.258 297.343 171.444C300.951 175.854 303.434 180.62 305.771 184.828C308.092 189.076 309.941 193.117 310.88 196.732C311.861 200.337 311.918 203.439 311.607 205.497C311.282 207.564 310.773 208.611 310.689 208.583C310.527 208.54 310.791 207.434 310.883 205.431C310.963 203.431 310.711 200.516 309.615 197.109C308.555 193.689 306.65 189.834 304.272 185.676C301.857 181.52 299.353 176.849 295.906 172.646C294.176 170.543 292.299 168.602 290.54 166.636C288.772 164.679 287.164 162.642 285.807 160.604C283.085 156.523 281.268 152.455 280.13 148.939C278.966 145.424 278.47 142.457 278.236 140.413C278.003 138.365 278.066 137.219 278.172 137.209Z" fill="#22343D"/>
<path fill-rule="evenodd" clip-rule="evenodd" d="M292.278 226.92C292.26 226.789 293.01 226.668 293.718 225.829C293.881 225.636 294.045 225.353 294.042 225.189C294.038 225.012 293.916 224.705 293.705 224.528C293.487 224.331 293.244 224.235 292.923 224.267C292.592 224.292 292.188 224.458 291.661 224.538C290.507 224.692 289.607 224.034 289.015 223.501C288.406 222.94 287.942 222.372 287.595 221.862C286.905 220.835 286.691 220.093 286.797 220.038C286.919 219.972 287.335 220.587 288.113 221.448C288.501 221.875 288.991 222.366 289.57 222.839C290.14 223.298 290.838 223.716 291.535 223.605C291.905 223.557 292.335 223.383 292.859 223.348C293.393 223.294 293.987 223.542 294.312 223.912C294.659 224.291 294.853 224.736 294.812 225.264C294.709 225.804 294.425 226.057 294.19 226.292C293.176 227.189 292.245 227.042 292.278 226.92Z" fill="#FF7B5B"/>
<path fill-rule="evenodd" clip-rule="evenodd" d="M297.716 227.693L288.879 230.936C288.879 230.936 296.377 237.558 297.716 227.693Z" fill="white"/>
<path fill-rule="evenodd" clip-rule="evenodd" d="M287.997 227.141C288.35 227.818 287.827 228.797 286.829 229.326C285.831 229.856 284.736 229.738 284.383 229.061C284.03 228.385 284.553 227.407 285.551 226.876C286.549 226.345 287.644 226.463 287.997 227.141Z" fill="#FFB2A0"/>
<path fill-rule="evenodd" clip-rule="evenodd" d="M298.473 221.718C298.762 222.425 298.151 223.349 297.11 223.784C296.066 224.22 294.987 223.999 294.698 223.292C294.408 222.584 295.019 221.66 296.062 221.226C297.104 220.791 298.184 221.011 298.473 221.718Z" fill="#FFB2A0"/>
<path fill-rule="evenodd" clip-rule="evenodd" d="M289.14 239.766C289.14 239.766 292.097 240.374 295.865 239.424C295.865 239.424 294.008 241.246 290.972 241.669C290.972 241.669 290.292 240.4 289.14 239.766Z" fill="#FFA192"/>
<path fill-rule="evenodd" clip-rule="evenodd" d="M292.161 219.715C292.492 219.999 292.533 220.501 292.252 220.835C291.971 221.17 291.475 221.211 291.142 220.927C290.811 220.645 290.77 220.143 291.051 219.807C291.332 219.472 291.829 219.431 292.161 219.715Z" fill="#22343D"/>
<path fill-rule="evenodd" clip-rule="evenodd" d="M286.222 223.164C286.554 223.447 286.594 223.949 286.313 224.284C286.034 224.618 285.536 224.659 285.204 224.376C284.872 224.092 284.832 223.591 285.113 223.256C285.394 222.921 285.891 222.88 286.222 223.164Z" fill="#22343D"/>
<path fill-rule="evenodd" clip-rule="evenodd" d="M292.196 216.397C292.117 216.652 291.38 216.642 290.569 216.89C289.751 217.112 289.131 217.515 288.93 217.341C288.722 217.196 289.203 216.302 290.312 215.984C291.419 215.662 292.295 216.161 292.196 216.397Z" fill="#22343D"/>
<path fill-rule="evenodd" clip-rule="evenodd" d="M281.937 222.651C281.739 222.503 282.05 221.65 282.805 220.798C283.568 219.926 284.546 219.635 284.648 219.878C284.758 220.115 284.162 220.667 283.492 221.434C282.813 222.197 282.152 222.814 281.937 222.651Z" fill="#22343D"/>
<path fill-rule="evenodd" clip-rule="evenodd" d="M278.604 229.274C278.604 229.274 275.77 226.871 274.409 229.045C273.049 231.22 280.531 232.364 280.531 232.364L278.604 229.274Z" fill="#FFC6B2"/>
<path fill-rule="evenodd" clip-rule="evenodd" d="M210.452 448.404C210.452 448.404 206.388 450.188 205.329 451.258C204.268 452.328 194.551 469.269 195.788 471.409C197.026 473.549 206.77 466.285 206.77 466.285C206.77 466.285 198.616 467.844 210.452 448.404Z" fill="#775298"/>
<path fill-rule="evenodd" clip-rule="evenodd" d="M289.745 470.807C289.745 470.807 286.859 473.956 286.413 475.402C285.968 476.846 285.171 496.406 287.253 497.719C289.333 499.034 295.021 488.241 295.021 488.241C295.021 488.241 288.221 493.617 289.745 470.852" fill="#775298"/>
</svg>
